<svg width="25" height="25" viewBox="0 0 25 25" fill="none" xmlns="http://www.w3.org/2000/svg">
<g clip-path="url(#clip0_5_293)">
<path d="M5.58337 13.1666V7.83325H3.58337C3.05294 7.83325 2.54423 8.04397 2.16916 8.41904C1.79409 8.79411 1.58337 9.30282 1.58337 9.83325V21.8333C1.58437 21.9571 1.61982 22.0782 1.68576 22.183C1.7517 22.2877 1.84552 22.3721 1.95671 22.4266C2.06383 22.4753 2.18193 22.4948 2.29902 22.4831C2.41612 22.4714 2.52802 22.4289 2.62337 22.3599L6.05671 19.8333H15.0167C15.2694 19.8407 15.5209 19.7962 15.7557 19.7026C15.9905 19.6089 16.2035 19.468 16.3816 19.2886C16.5597 19.1092 16.6991 18.8952 16.7912 18.6598C16.8832 18.4244 16.9259 18.1725 16.9167 17.9199V17.1666H9.58337C8.52251 17.1666 7.50509 16.7452 6.75495 15.995C6.0048 15.2449 5.58337 14.2275 5.58337 13.1666Z" fill="black"/>
<path d="M20.9167 3.16675H9.58337C9.05294 3.16675 8.54423 3.37746 8.16916 3.75253C7.79409 4.12761 7.58337 4.63632 7.58337 5.16675V13.1667C7.58337 13.6972 7.79409 14.2059 8.16916 14.581C8.54423 14.956 9.05294 15.1667 9.58337 15.1667H18.6167L21.8034 17.6401C21.8981 17.7101 22.0097 17.7538 22.1268 17.7667C22.2439 17.7796 22.3623 17.7612 22.47 17.7134C22.5835 17.6594 22.6794 17.5744 22.7466 17.4682C22.8138 17.3621 22.8497 17.2391 22.85 17.1134V5.16675C22.8503 4.64767 22.6488 4.14881 22.288 3.77559C21.9272 3.40238 21.4355 3.18405 20.9167 3.16675Z" fill="black"/>
</g>
<defs>
<clipPath id="clip0_5_293">
<rect width="24" height="24" fill="white" transform="translate(0.25 0.5)"/>
</clipPath>
</defs>
</svg>
