<svg width="25" height="25" viewBox="0 0 25 25" fill="none" xmlns="http://www.w3.org/2000/svg">
<path d="M5.75 17.5C5.75 18.0304 5.96071 18.5391 6.33579 18.9142C6.71086 19.2893 7.21957 19.5 7.75 19.5C8.28043 19.5 8.78914 19.2893 9.16421 18.9142C9.53929 18.5391 9.75 18.0304 9.75 17.5C9.75 16.9696 9.53929 16.4609 9.16421 16.0858C8.78914 15.7107 8.28043 15.5 7.75 15.5C7.21957 15.5 6.71086 15.7107 6.33579 16.0858C5.96071 16.4609 5.75 16.9696 5.75 17.5ZM15.75 17.5C15.75 18.0304 15.9607 18.5391 16.3358 18.9142C16.7109 19.2893 17.2196 19.5 17.75 19.5C18.2804 19.5 18.7891 19.2893 19.1642 18.9142C19.5393 18.5391 19.75 18.0304 19.75 17.5C19.75 16.9696 19.5393 16.4609 19.1642 16.0858C18.7891 15.7107 18.2804 15.5 17.75 15.5C17.2196 15.5 16.7109 15.7107 16.3358 16.0858C15.9607 16.4609 15.75 16.9696 15.75 17.5Z" stroke="black" stroke-width="2" stroke-linecap="round" stroke-linejoin="round"/>
<path d="M5.75 17.5H3.75V13.5M2.75 5.5H13.75V17.5M9.75 17.5H15.75M19.75 17.5H21.75V11.5M21.75 11.5H13.75M21.75 11.5L18.75 6.5H13.75M3.75 9.5H7.75" stroke="black" stroke-width="2" stroke-linecap="round" stroke-linejoin="round"/>
</svg>
