<svg width="25" height="25" viewBox="0 0 25 25" fill="none" xmlns="http://www.w3.org/2000/svg">
<mask id="mask0_42_9" style="mask-type:alpha" maskUnits="userSpaceOnUse" x="0" y="0" width="25" height="25">
<rect x="0.619385" y="0.104126" width="24" height="24" fill="#D9D9D9"/>
</mask>
<g mask="url(#mask0_42_9)">
<path d="M12.6194 22.1041C11.2361 22.1041 9.93605 21.8416 8.71938 21.3166C7.50272 20.7916 6.44438 20.0791 5.54438 19.1791C4.64438 18.2791 3.93188 17.2208 3.40688 16.0041C2.88188 14.7875 2.61938 13.4875 2.61938 12.1041C2.61938 10.7208 2.88188 9.42079 3.40688 8.20413C3.93188 6.98746 4.64438 5.92913 5.54438 5.02913C6.44438 4.12913 7.50272 3.41663 8.71938 2.89163C9.93605 2.36663 11.2361 2.10413 12.6194 2.10413C14.0027 2.10413 15.3027 2.36663 16.5194 2.89163C17.7361 3.41663 18.7944 4.12913 19.6944 5.02913C20.5944 5.92913 21.3069 6.98746 21.8319 8.20413C22.3569 9.42079 22.6194 10.7208 22.6194 12.1041V13.5541C22.6194 14.5375 22.2819 15.375 21.6069 16.0666C20.9319 16.7583 20.1027 17.1041 19.1194 17.1041C18.5361 17.1041 17.9861 16.9791 17.4694 16.7291C16.9527 16.4791 16.5194 16.1208 16.1694 15.6541C15.6861 16.1375 15.1402 16.5 14.5319 16.7416C13.9236 16.9833 13.2861 17.1041 12.6194 17.1041C11.2361 17.1041 10.0569 16.6166 9.08188 15.6416C8.10688 14.6666 7.61938 13.4875 7.61938 12.1041C7.61938 10.7208 8.10688 9.54163 9.08188 8.56663C10.0569 7.59163 11.2361 7.10413 12.6194 7.10413C14.0027 7.10413 15.1819 7.59163 16.1569 8.56663C17.1319 9.54163 17.6194 10.7208 17.6194 12.1041V13.5541C17.6194 13.9875 17.7611 14.3541 18.0444 14.6541C18.3277 14.9541 18.6861 15.1041 19.1194 15.1041C19.5527 15.1041 19.9111 14.9541 20.1944 14.6541C20.4777 14.3541 20.6194 13.9875 20.6194 13.5541V12.1041C20.6194 9.87079 19.8444 7.97913 18.2944 6.42913C16.7444 4.87913 14.8527 4.10413 12.6194 4.10413C10.3861 4.10413 8.49439 4.87913 6.94439 6.42913C5.39438 7.97913 4.61938 9.87079 4.61938 12.1041C4.61938 14.3375 5.39438 16.2291 6.94439 17.7791C8.49439 19.3291 10.3861 20.1041 12.6194 20.1041H17.6194V22.1041H12.6194ZM12.6194 15.1041C13.4527 15.1041 14.1611 14.8125 14.7444 14.2291C15.3277 13.6458 15.6194 12.9375 15.6194 12.1041C15.6194 11.2708 15.3277 10.5625 14.7444 9.97913C14.1611 9.39579 13.4527 9.10413 12.6194 9.10413C11.7861 9.10413 11.0777 9.39579 10.4944 9.97913C9.91105 10.5625 9.61938 11.2708 9.61938 12.1041C9.61938 12.9375 9.91105 13.6458 10.4944 14.2291C11.0777 14.8125 11.7861 15.1041 12.6194 15.1041Z" fill="#1C1B1F"/>
</g>
</svg>
