<svg width="25" height="25" viewBox="0 0 25 25" fill="none" xmlns="http://www.w3.org/2000/svg">
<path d="M21.25 5C21.25 4.60218 21.092 4.22064 20.8107 3.93934C20.5294 3.65804 20.1478 3.5 19.75 3.5H16.75V2H15.25V3.5H9.25V2H7.75V3.5H4.75C4.35218 3.5 3.97064 3.65804 3.68934 3.93934C3.40804 4.22064 3.25 4.60218 3.25 5V20C3.25 20.3978 3.40804 20.7794 3.68934 21.0607C3.97064 21.342 4.35218 21.5 4.75 21.5H7.75V20H4.75V5H7.75V6.5H9.25V5H15.25V6.5H16.75V5H19.75V9.5H21.25V5Z" fill="black"/>
<path d="M16 11.75L17.9117 15.4535L22 16.0468L19 18.9297L19.75 23L16 21.0785L12.25 23L13 18.9297L10 16.0468L14.2 15.4535L16 11.75Z" fill="black"/>
</svg>
