<svg width="25" height="25" viewBox="0 0 25 25" fill="none" xmlns="http://www.w3.org/2000/svg">
<path d="M19.898 3.471C19.7198 3.17552 19.4685 2.93095 19.1683 2.76087C18.868 2.59079 18.529 2.50095 18.184 2.5H7.316C6.618 2.5 5.961 2.872 5.602 3.471L2.893 7.985C2.79926 8.14041 2.74981 8.3185 2.75 8.5C2.75399 9.46521 3.10949 10.3959 3.75 11.118V19.5C3.75 20.603 4.647 21.5 5.75 21.5H19.75C20.853 21.5 21.75 20.603 21.75 19.5V11.118C22.3905 10.3959 22.746 9.46521 22.75 8.5C22.7502 8.3185 22.7007 8.14041 22.607 7.985L19.898 3.471ZM20.734 8.751C20.6723 9.23382 20.4368 9.67764 20.0717 9.99952C19.7066 10.3214 19.2367 10.4993 18.75 10.5C17.647 10.5 16.75 9.603 16.75 8.5C16.75 8.432 16.725 8.372 16.711 8.308L16.731 8.304L15.97 4.5H18.184L20.734 8.751ZM11.569 4.5H13.93L14.743 8.565C14.708 9.637 13.83 10.5 12.75 10.5C11.67 10.5 10.792 9.637 10.757 8.565L11.569 4.5ZM7.316 4.5H9.53L8.77 8.304L8.79 8.308C8.775 8.372 8.75 8.432 8.75 8.5C8.75 9.603 7.853 10.5 6.75 10.5C6.26325 10.4993 5.79341 10.3214 5.42828 9.99952C5.06315 9.67764 4.82772 9.23382 4.766 8.751L7.316 4.5ZM10.75 19.5V16.5H14.75V19.5H10.75ZM16.75 19.5V16.5C16.75 15.397 15.853 14.5 14.75 14.5H10.75C9.647 14.5 8.75 15.397 8.75 16.5V19.5H5.75V12.358C6.071 12.441 6.402 12.5 6.75 12.5C7.31782 12.5003 7.87915 12.3794 8.3965 12.1454C8.91386 11.9114 9.3753 11.5696 9.75 11.143C10.483 11.975 11.557 12.5 12.75 12.5C13.943 12.5 15.017 11.975 15.75 11.143C16.1247 11.5696 16.5861 11.9114 17.1035 12.1454C17.6208 12.3794 18.1822 12.5003 18.75 12.5C19.098 12.5 19.429 12.441 19.75 12.358V19.5H16.75Z" fill="black"/>
</svg>
