<svg width="13" height="12" viewBox="0 0 13 12" fill="none" xmlns="http://www.w3.org/2000/svg">
<path d="M0.499775 0.265725C0.205367 0.433877 0.0395078 0.662725 0.0386729 0.901942C0.0378379 1.14116 0.202095 1.37116 0.495322 1.54136L8.23773 6.03408L0.464149 10.4726C0.178064 10.6418 0.0192967 10.8691 0.0220426 11.1057C0.0247875 11.3422 0.188826 11.5691 0.478827 11.7373C0.768828 11.9056 1.16159 12.0019 1.57251 12.0054C1.98344 12.0089 2.37965 11.9193 2.67582 11.756L11.5597 6.6835C11.8541 6.51535 12.02 6.2865 12.0208 6.04728C12.0216 5.80806 11.8574 5.57806 11.5641 5.40786L2.7159 0.27346C2.42258 0.103307 2.02434 0.00690616 1.60876 0.00545563C1.19317 0.00400511 0.794272 0.0976241 0.499775 0.265725Z" fill="black"/>
</svg>
